<?xml version="1.0" encoding="UTF-8" standalone="no"?>
<!-- Generator: Adobe Illustrator 14.0.0, SVG Export Plug-In . SVG Version: 6.00 Build 43363)  -->

<svg
   xmlns:dc="http://purl.org/dc/elements/1.1/"
   xmlns:cc="http://creativecommons.org/ns#"
   xmlns:rdf="http://www.w3.org/1999/02/22-rdf-syntax-ns#"
   xmlns:svg="http://www.w3.org/2000/svg"
   xmlns="http://www.w3.org/2000/svg"
   xmlns:xlink="http://www.w3.org/1999/xlink"
   xmlns:sodipodi="http://sodipodi.sourceforge.net/DTD/sodipodi-0.dtd"
   xmlns:inkscape="http://www.inkscape.org/namespaces/inkscape"
   version="1.1"
   id="Layer_1"
   x="0px"
   y="0px"
   width="360.23901"
   height="421.07169"
   viewBox="91.801 15.624 360.239 421.07167"
   enable-background="new 91.801 15.624 611.306 568.512"
   xml:space="preserve"
   inkscape:version="0.48.1 r9760"
   sodipodi:docname="icon.svg"
   inkscape:export-filename="D:\Projets\Android\stickeroid\icon.png"
   inkscape:export-xdpi="127.81672"
   inkscape:export-ydpi="127.81672"><metadata
   id="metadata33"><rdf:RDF><cc:Work
       rdf:about=""><dc:format>image/svg+xml</dc:format><dc:type
         rdf:resource="http://purl.org/dc/dcmitype/StillImage" /><dc:title></dc:title></cc:Work></rdf:RDF></metadata><defs
   id="defs31"><linearGradient
   id="linearGradient3183"><stop
     style="stop-color:#ffffff;stop-opacity:1;"
     offset="0"
     id="stop3185" /><stop
     id="stop3191"
     offset="0.73015875"
     style="stop-color:#ffffff;stop-opacity:1;" /><stop
     style="stop-color:#7d7d7d;stop-opacity:1;"
     offset="1"
     id="stop3187" /></linearGradient>
	
	

		
		
		
	<linearGradient
   inkscape:collect="always"
   xlink:href="#linearGradient3183"
   id="linearGradient3189"
   x1="557.61932"
   y1="323.32187"
   x2="597.87524"
   y2="255.13333"
   gradientUnits="userSpaceOnUse"
   gradientTransform="matrix(0.999874,-0.01587391,0.01587391,0.999874,-287.05572,-117.92591)" /><filter
   id="filter3193"
   inkscape:label="Drop shadow"
   width="1.5"
   height="1.5"
   x="-.25"
   y="-.25"><feGaussianBlur
     id="feGaussianBlur3195"
     in="SourceAlpha"
     stdDeviation="2"
     result="blur" /><feColorMatrix
     id="feColorMatrix3197"
     result="bluralpha"
     type="matrix"
     values="1 0 0 0 0 0 1 0 0 0 0 0 1 0 0 0 0 0 0.494 0 " /><feOffset
     id="feOffset3199"
     in="bluralpha"
     dx="4"
     dy="4"
     result="offsetBlur" /><feMerge
     id="feMerge3201"><feMergeNode
       id="feMergeNode3203"
       in="offsetBlur" /><feMergeNode
       id="feMergeNode3205"
       in="SourceGraphic" /></feMerge></filter><filter
   id="filter3207"
   inkscape:label="Drop shadow"
   width="1.5"
   height="1.5"
   x="-.25"
   y="-.25"><feGaussianBlur
     id="feGaussianBlur3209"
     in="SourceAlpha"
     stdDeviation="2"
     result="blur" /><feColorMatrix
     id="feColorMatrix3211"
     result="bluralpha"
     type="matrix"
     values="1 0 0 0 0 0 1 0 0 0 0 0 1 0 0 0 0 0 0.494 0 " /><feOffset
     id="feOffset3213"
     in="bluralpha"
     dx="4"
     dy="4"
     result="offsetBlur" /><feMerge
     id="feMerge3215"><feMergeNode
       id="feMergeNode3217"
       in="offsetBlur" /><feMergeNode
       id="feMergeNode3219"
       in="SourceGraphic" /></feMerge></filter></defs><sodipodi:namedview
   pagecolor="#ffffff"
   bordercolor="#666666"
   borderopacity="1"
   objecttolerance="10"
   gridtolerance="10"
   guidetolerance="10"
   inkscape:pageopacity="0"
   inkscape:pageshadow="2"
   inkscape:window-width="1304"
   inkscape:window-height="746"
   id="namedview29"
   showgrid="false"
   fit-margin-top="0"
   fit-margin-left="0"
   fit-margin-right="0"
   fit-margin-bottom="0"
   inkscape:zoom="1.7213986"
   inkscape:cx="204.72377"
   inkscape:cy="303.51681"
   inkscape:window-x="54"
   inkscape:window-y="-8"
   inkscape:window-maximized="1"
   inkscape:current-layer="Layer_1" />

<path
   style="fill:#ffffff;stroke:#000000;stroke-width:1;filter:url(#filter3207)"
   d="m 109.30911,51.024484 c 0.65578,2.950051 1.5729,4.652019 4.02913,6.64492 1.88859,3.37645 4.86668,6.084504 6.625,9.500001 -25.143976,15.761982 -42.719957,44.353365 -42.374997,74.406255 -5.92513,-4.59464 -13.332331,-7.24228 -20.906251,-6.75 -20.816231,0.16077 -35.212471,22.99662 -30.812501,42.4375 0.93729,27.91781 -2.791,56.30059 2.5625,83.875 7.59366,18.94639 35.126641,24.93433 50.218752,12.09375 0.24085,9.95289 0.63123,19.89939 1.1875,29.84375 4.17255,13.52124 19.489531,20.51569 32.937497,19.40625 -0.67324,15.79017 -2.52281,32.50886 3.09375,47.5625 9.59132,19.60606 41.42147,23.67801 53.93751,4.90625 11.28475,-15.20766 6.06216,-35.48902 6.84375,-52.9375 1.11518,-1.94342 4.35463,1.02328 6.21875,-0.3125 4.24982,-1.17396 0.89096,4.9593 1.75,7.0625 -0.57723,15.69987 -2.93343,33.83511 7.15625,47.15625 13.05849,15.76764 42.30014,15.08243 52.0625,-4.03125 8.72886,-15.12612 4.03856,-33.70497 4.65625,-49.90625 14.78668,2.41279 32.31329,-7.6977 33.5,-23.625 1.24867,-8.21046 0.92499,-16.49003 0.59375,-24.78125 13.3979,9.55542 34.5503,9.11716 44.53125,-5.0625 12.10849,-15.71647 6.06366,-36.66004 7.1875,-54.90625 -0.0488,-11.60557 0.6378,-23.38603 0.30237,-35.05599"
   id="path3030"
   transform="translate(91.801,15.624)"
   inkscape:connector-curvature="0"
   sodipodi:nodetypes="ccccccccccccccccccccccc" /><path
   style="fill:#94c147"
   d="M 322.4375 170.6875 L 290.1875 152.53125 C 285.22814 156.27917 281.96875 162.24116 281.96875 169 L 281.96875 249.34375 C 281.96875 260.70033 291.03996 269.90625 302.21875 269.90625 C 313.39754 269.90625 322.4375 260.70112 322.4375 249.34375 L 322.4375 170.6875 z "
   id="path3152"
   transform="translate(91.801,15.624)" /><path
   style="fill:#94c147"
   d="m 149.83529,164.05964 c -11.18511,0 -20.24303,9.20727 -20.24303,20.56069 v 80.3463 c 0,11.35658 9.05713,20.5599 20.24303,20.5599 11.18353,0 20.24699,-9.20253 20.24699,-20.5599 v -80.3463 c -0.006,-11.35342 -9.06741,-20.56069 -20.24699,-20.56069 z"
   id="path23" /><path
   d="m 182.25907,164.68705 v 146.79162 c 0,8.71972 7.0706,15.78795 15.79033,15.78795 h 18.02813 v 44.69856 c 0,11.355 9.06346,20.55752 20.24698,20.55752 11.17958,0 20.24699,-9.20252 20.24699,-20.55752 v -44.69856 h 31.51111 v 44.69856 c 0,11.355 9.05792,20.55752 20.23671,20.55752 11.17879,0 20.24619,-9.20252 20.24619,-20.55752 v -44.69856 h 18.03841 c 8.70945,0 15.78084,-7.07455 15.78084,-15.78795 V 164.68705 H 182.25907 l 0,0 z"
   id="path25"
   inkscape:connector-curvature="0"
   style="fill:#94c147" /><path
   style="fill:#94c147"
   d="M 260.75 135.96875 L 144.03125 70.28125 C 143.61272 70.439723 143.16515 70.554983 142.75 70.71875 L 141.4375 68.8125 L 130.15625 62.4375 L 137.40625 73 C 110.9634 85.30322 92.42516 108.67566 90.0625 135.96875 L 260.75 135.96875 z M 142.125 91.125 C 147.63261 91.125 152.0625 95.59562 152.0625 101.09375 C 152.0625 106.59741 147.62708 111.0625 142.125 111.0625 C 136.62135 111.0625 132.15625 106.60136 132.15625 101.09375 C 132.15625 95.59562 136.6174 91.125 142.125 91.125 z "
   id="path3018"
   transform="translate(91.801,15.624)" /><path
   style="fill:url(#linearGradient3189);fill-opacity:1;stroke:none;filter:url(#filter3193)"
   d="m 426.53926,193.71733 c -2.5209,1.39438 -5.00707,2.8592 -7.59271,4.10878 -2.2297,1.07758 -4.48548,2.10228 -6.77706,3.0377 -2.29159,0.93542 -4.60339,1.77239 -6.96954,2.53373 -1.60351,0.20007 -3.231,0.29038 -4.84506,0.24194 -1.61406,-0.0484 -3.22652,-0.21787 -4.81757,-0.50297 -1.59105,-0.28511 -3.15381,-0.68965 -4.68828,-1.19957 -1.53446,-0.50992 -3.02896,-1.15175 -4.47327,-1.87464 -1.44431,-0.72288 -2.84663,-1.53451 -4.16723,-2.45852 -1.32061,-0.924 -2.55852,-1.9397 -3.72186,-3.05298 -1.16332,-1.11329 -2.24504,-2.31916 -3.21753,-3.60987 -0.9725,-1.29072 -1.83655,-2.6782 -2.58461,-4.13452 -0.86737,-1.47948 -1.57392,-2.99435 -2.13942,-4.54674 -0.56552,-1.55239 -0.98855,-3.14211 -1.27105,-4.73886 -0.2825,-1.59673 -0.43265,-3.21663 -0.45097,-4.82918 -0.0186,-1.61253 0.0937,-3.21792 0.32076,-4.81774 -1.4365,0.86822 -2.91315,1.68074 -4.39698,2.45042 l -0.9116,0.54579 -0.0321,-0.0536 c -3.1114,1.56046 -6.31084,2.92374 -9.58634,4.06403 -3.2755,1.14028 -6.62781,2.06546 -10.01923,2.79345 -3.39143,0.72799 -6.82153,1.24236 -10.28069,1.56591 -3.45915,0.32356 -6.96165,0.45974 -10.44034,0.38672 -3.47869,-0.073 -6.94093,-0.34661 -10.39098,-0.80837 -3.45006,-0.46177 -6.8666,-1.11251 -10.23984,-1.95513 -3.37324,-0.84262 -6.72792,-1.88079 -9.97615,-3.09641 -3.24821,-1.21563 -6.39629,-2.6192 -9.47132,-4.19997 -0.86699,2.4123 -1.83017,5.05035 -2.96559,7.63961 -1.1354,2.58924 -2.45794,5.15036 -4.0319,7.4403 -0.78697,1.14496 -1.64697,2.20016 -2.57549,3.18101 -0.92851,0.98084 -1.91776,1.88211 -3.00908,2.63929 -1.09129,0.75723 -2.26891,1.39306 -3.54428,1.86706 -1.27539,0.47399 -2.64146,0.77058 -4.12218,0.90183 -1.46745,0.0143 -2.87014,-0.22043 -4.18502,-0.66316 -1.31487,-0.44273 -2.55502,-1.06945 -3.67472,-1.87925 -1.1197,-0.80978 -2.12726,-1.80971 -3.0092,-2.89688 -0.88195,-1.08718 -1.62987,-2.26976 -2.23145,-3.54466 -0.60162,-1.27487 -1.0627,-2.6318 -1.3414,-4.00469 -0.2787,-1.37288 -0.38836,-2.77256 -0.30156,-4.15377 0.0868,-1.3812 0.36107,-2.74565 0.85596,-4.04548 0.4949,-1.29983 1.22844,-2.54031 2.174,-3.66909 0.9765,-2.71459 2.52947,-5.55167 3.92023,-8.35685 0.69538,-1.40259 1.35855,-2.8163 1.869,-4.17851 0.51045,-1.36221 0.88349,-2.67976 1.01666,-3.95959 -2.00182,-1.86032 -3.92924,-3.77954 -5.79332,-5.78284 -1.8641,-2.0033 -3.67313,-4.07217 -5.39098,-6.20585 -1.71786,-2.13367 -3.36661,-4.33984 -4.92971,-6.59128 -1.5631,-2.25144 -3.03648,-4.56648 -4.43634,-6.9231 -1.39943,-2.35686 -2.72563,-4.76286 -3.95372,-7.21205 -1.22809,-2.44918 -2.36438,-4.93426 -3.41219,-7.46341 -1.04782,-2.52916 -1.99558,-5.09146 -2.85461,-7.68799 -0.85904,-2.59653 -1.61924,-5.234435 -2.28098,-7.885735 -2.84787,-0.17823 -5.91956,-0.15002 -9.04101,-0.19613 -3.12144,-0.0461 -6.30196,-0.16868 -9.35147,-0.59302 -1.52476,-0.21218 -3.02685,-0.491456 -4.46884,-0.893876 -1.44199,-0.402431 -2.82525,-0.907017 -4.14128,-1.563489 -1.31605,-0.656472 -2.54336,-1.478393 -3.69027,-2.4527 -1.1469,-0.974317 -2.2027,-2.119872 -3.13728,-3.475817 -0.84489,-1.405346 -1.38394,-2.84292 -1.63052,-4.30509 -0.24659,-1.46217 -0.21671,-2.928879 0.047,-4.362456 0.26372,-1.433586 0.76526,-2.827404 1.45095,-4.146754 0.68568,-1.319341 1.57275,-2.581351 2.59206,-3.700843 1.0193,-1.119491 2.18422,-2.105007 3.44883,-2.939006 0.91989,-0.606709 1.92356,-1.011702 2.9329,-1.428167 L 426.53931,193.71731 z"
   id="path3181"
   inkscape:connector-curvature="0" /><path
   inkscape:connector-curvature="0"
   id="path3014"
   d="m 426.23117,193.71733 c -2.4182,1.80515 -5.00707,2.8592 -7.59271,4.10878 -2.2297,1.07758 -4.48548,2.10228 -6.77706,3.0377 -2.29159,0.93542 -4.60339,1.77239 -6.96954,2.53373 -1.60351,0.20007 -3.231,0.29038 -4.84506,0.24194 -1.61406,-0.0484 -3.22652,-0.21787 -4.81757,-0.50297 -1.59105,-0.28511 -3.15381,-0.68965 -4.68828,-1.19957 -1.53446,-0.50992 -3.02896,-1.15175 -4.47327,-1.87464 -1.44431,-0.72288 -2.84663,-1.53451 -4.16723,-2.45852 -1.32061,-0.924 -2.55852,-1.9397 -3.72186,-3.05298 -1.16332,-1.11329 -2.24504,-2.31916 -3.21753,-3.60987 -0.9725,-1.29072 -1.83655,-2.6782 -2.58461,-4.13452 -0.86737,-1.47948 -1.57392,-2.99435 -2.13942,-4.54674 -0.56552,-1.55239 -0.98855,-3.14211 -1.27105,-4.73886 -0.2825,-1.59673 -0.43265,-3.21663 -0.45097,-4.82918 -0.0186,-1.61253 0.0937,-3.21792 0.32076,-4.81774 -1.4365,0.86822 -2.91315,1.68074 -4.39698,2.45042 l -0.9116,0.54579 -0.0321,-0.0536 c -3.1114,1.56046 -6.31084,2.92374 -9.58634,4.06403 -3.2755,1.14028 -6.62781,2.06546 -10.01923,2.79345 -3.39143,0.72799 -6.82153,1.24236 -10.28069,1.56591 -3.45915,0.32356 -6.96165,0.45974 -10.44034,0.38672 -3.47869,-0.073 -6.94093,-0.34661 -10.39098,-0.80837 -3.45006,-0.46177 -6.8666,-1.11251 -10.23984,-1.95513 -3.37324,-0.84262 -6.72792,-1.88079 -9.97615,-3.09641 -3.24821,-1.21563 -6.39629,-2.6192 -9.47132,-4.19997 -0.86699,2.4123 -1.83017,5.05035 -2.96559,7.63961 -1.1354,2.58924 -2.45794,5.15036 -4.0319,7.4403 -0.78697,1.14496 -1.64697,2.20016 -2.57549,3.18101 -0.92851,0.98084 -1.91776,1.88211 -3.00908,2.63929 -1.09129,0.75723 -2.26891,1.39306 -3.54428,1.86706 -1.27539,0.47399 -2.64146,0.77058 -4.12218,0.90183 -1.46745,0.0143 -2.87014,-0.22043 -4.18502,-0.66316 -1.31487,-0.44273 -2.55502,-1.06945 -3.67472,-1.87925 -1.1197,-0.80978 -2.12726,-1.80971 -3.0092,-2.89688 -0.88195,-1.08718 -1.62987,-2.26976 -2.23145,-3.54466 -0.60162,-1.27487 -1.0627,-2.6318 -1.3414,-4.00469 -0.2787,-1.37288 -0.38836,-2.77256 -0.30156,-4.15377 0.0868,-1.3812 0.36107,-2.74565 0.85596,-4.04548 0.4949,-1.29983 1.22844,-2.54031 2.174,-3.66909 0.9765,-2.71459 2.52947,-5.55167 3.92023,-8.35685 0.69538,-1.40259 1.35855,-2.8163 1.869,-4.17851 0.51045,-1.36221 0.88349,-2.67976 1.01666,-3.95959 -2.00182,-1.86032 -3.92924,-3.77954 -5.79332,-5.78284 -1.8641,-2.0033 -3.67313,-4.07217 -5.39098,-6.20585 -1.71786,-2.13367 -3.36661,-4.33984 -4.92971,-6.59128 -1.5631,-2.25144 -3.03648,-4.56648 -4.43634,-6.9231 -1.39943,-2.35686 -2.72563,-4.76286 -3.95372,-7.21205 -1.22809,-2.44918 -2.36438,-4.93426 -3.41219,-7.46341 -1.04782,-2.52916 -1.99558,-5.09146 -2.85461,-7.68799 -0.85904,-2.59653 -1.61924,-5.234432 -2.28098,-7.885732 -2.84787,-0.17823 -5.91956,-0.15002 -9.04101,-0.19613 -3.12144,-0.0461 -6.30196,-0.16868 -9.35147,-0.59302 -1.52476,-0.21218 -3.02685,-0.49146 -4.46884,-0.89388 -1.44199,-0.40243 -2.82525,-0.90702 -4.14128,-1.56349 -1.31605,-0.65647 -2.54336,-1.47839 -3.69027,-2.4527 -1.1469,-0.97432 -2.2027,-2.11987 -3.13728,-3.47582 -0.84489,-1.40534 -1.38394,-2.84292 -1.63052,-4.30509 -0.24659,-1.46217 -0.21671,-2.92887 0.047,-4.36245 0.26372,-1.43359 0.76526,-2.82741 1.45095,-4.14676 0.68568,-1.319336 1.57275,-2.581346 2.59206,-3.700838 1.0193,-1.119491 2.18422,-2.105007 3.44883,-2.939006 0.91989,-0.606709 2.12895,-1.011702 3.13829,-1.428167"
   style="fill:none;stroke:#000000;stroke-width:1px;stroke-linecap:butt;stroke-linejoin:miter;stroke-opacity:1"
   sodipodi:nodetypes="cssccssssssccscccccssssssscssscccssscssscsscssscssscssssscsssscc" /></svg>